/* XPM */
static char * 1_xpm[] = {
"14 20 19 1",
" 	c None",
".	c #414141",
"+	c #2C2C2C",
"@	c #2A2A2A",
"#	c #292929",
"$	c #202020",
"%	c #1D1D1D",
"&	c #1E1E1E",
"*	c #272727",
"=	c #242424",
"-	c #212121",
";	c #1C1C1C",
">	c #232323",
",	c #686868",
"'	c #393939",
")	c #1B1B1B",
"!	c #252525",
"~	c #222222",
"{	c #1F1F1F",
"..............",
"++++++++++++++",
"++++++++++++++",
"++++++++++++++",
"++++++++++++++",
"@@@@@@@@#$%&*@",
"########=--=;#",
"********>;,')*",
"!!!!!!!!~$'@;!",
"========>&);$=",
"~~~~~~~~~~~~~~",
"$$$$$$$$$$$$$$",
"{{{{{{{{{{{{{{",
"%%%%%%%%%%%%%%",
"%%%%%%%%%%%%%%",
"%%%%%%%%%%%%%%",
"%%%%%%%%%%%%%%",
"%%%%%%%%%%%%%%",
"%%%%%%%%%%%%%%",
"{{{{{{{{{{{{{{"};
