/* XPM */
static char * bar_xpm[] = {
"1 20 3 1",
" 	c None",
".	c #303130",
"+	c #1D1D1D",
".",
".",
".",
".",
".",
".",
".",
".",
".",
".",
"+",
"+",
"+",
"+",
"+",
"+",
"+",
"+",
"+",
"+"};
